<svg xmlns="http://www.w3.org/2000/svg" viewBox="0 0 584.65 432.48"><defs><style>.a{fill:#fff;}.b,.c,.d,.e,.f{fill:none;}.b,.c,.d,.e,.f,.g{stroke:#000;stroke-miterlimit:10;stroke-width:2px;}.c{stroke-dasharray:13.25 13.25;}.d{stroke-dasharray:12.72 12.72;}.e{stroke-dasharray:13;}.f{stroke-dasharray:13.25 13.25;}.g{fill:#f2f2f2;}.h{font-size:13px;}.h,.k,.l{font-family:Source Sans Pro;}.i{white-space:pre;}.j,.k,.l{fill:#b3b3b3;}.k{font-size:36px;}.l{font-size:24px;}</style></defs><title>game-small</title><rect class="a" x="27.44" y="24.29" width="556.21" height="407.19"/><polyline class="b" points="583.65 424.98 583.65 431.48 577.15 431.48"/><line class="c" x1="563.9" y1="431.48" x2="40.56" y2="431.48"/><polyline class="b" points="33.94 431.48 27.44 431.48 27.44 424.98"/><line class="d" x1="27.44" y1="412.26" x2="27.44" y2="37.15"/><polyline class="b" points="27.44 30.79 27.44 24.29 33.94 24.29"/><line class="c" x1="47.19" y1="24.29" x2="570.52" y2="24.29"/><polyline class="b" points="577.15 24.29 583.65 24.29 583.65 30.79"/><line class="d" x1="583.65" y1="43.51" x2="583.65" y2="418.62"/><line class="e" x1="194.77" y1="24.29" x2="194.77" y2="431.48"/><line class="b" x1="27.54" y1="372.52" x2="34.04" y2="372.52"/><line class="f" x1="47.28" y1="372.52" x2="570.53" y2="372.52"/><line class="b" x1="577.15" y1="372.52" x2="583.65" y2="372.52"/><rect class="g" x="200.11" y="30.55" width="377.45" height="335.61" rx="44" ry="44"/><text class="h" transform="translate(96.66 12.27)"><tspan class="i"> au</tspan><tspan x="17.33" y="0">t</tspan><tspan x="21.92" y="0">o</tspan></text><text class="h" transform="translate(379.54 10.79)">1 fr</text><text class="h" transform="translate(11.79 399.27) rotate(-90)">au<tspan x="14.38" y="0">t</tspan><tspan x="18.97" y="0">o</tspan></text><text class="h" transform="translate(10.79 77.27) rotate(-90)">au<tspan x="14.38" y="0">t</tspan><tspan x="18.97" y="0">o</tspan></text><text class="h" transform="translate(10.79 297.27) rotate(-90)">minmax(min-<tspan x="76.96" y="0">c</tspan><tspan x="82.94" y="0">on</tspan><tspan x="97.75" y="0">t</tspan><tspan x="102.33" y="0">en</tspan><tspan x="116.54" y="0">t</tspan><tspan x="121.44" y="0">,1fr)</tspan></text><rect class="g" x="32.11" y="30.55" width="156.82" height="71.97" rx="12" ry="12"/><rect class="g" x="32.11" y="378.28" width="156.82" height="46.97" rx="12" ry="12"/><rect class="g" x="32.11" y="113.12" width="156.82" height="253.03" rx="12" ry="12"/><rect class="g" x="202.04" y="378.28" width="372.5" height="46.97" rx="12" ry="12"/><rect class="j" x="43.45" y="128.03" width="81.09" height="21.21" rx="4" ry="4"/><rect class="j" x="43.45" y="155.03" width="132.61" height="21.21" rx="4" ry="4"/><rect class="j" x="42.45" y="183.03" width="62.39" height="21.21" rx="4" ry="4"/><rect class="j" x="42.45" y="210.03" width="85.88" height="21.21" rx="4" ry="4"/><rect class="j" x="42.45" y="236.03" width="81.09" height="21.21" rx="4" ry="4"/><rect class="j" x="42.45" y="263.03" width="132.61" height="21.21" rx="4" ry="4"/><rect class="j" x="42.45" y="291.03" width="62.39" height="21.21" rx="4" ry="4"/><rect class="j" x="41.45" y="318.03" width="85.88" height="21.21" rx="4" ry="4"/><line class="e" x1="27.33" y1="107.08" x2="583.65" y2="107.08"/><text class="k" transform="translate(65.9 82.34)">Game</text><text class="l" transform="translate(116.69 415.27)">23156</text><polygon class="j" points="227.78 389.43 242.71 415.29 212.85 415.29 227.78 389.43"/><polygon class="j" points="258.79 396.67 263.65 387.44 268.02 396.91 278.3 398.68 270.64 405.76 272.14 416.08 263.04 410.99 253.68 415.6 255.71 405.37 248.44 397.89 258.79 396.67"/><polygon class="j" points="298.86 389.72 312.72 399.8 307.42 416.09 290.29 416.09 284.99 399.8 298.86 389.72"/><polygon class="j" points="335.78 390.43 350.71 416.29 320.85 416.29 335.78 390.43"/><polygon class="j" points="366.79 396.67 371.65 387.44 376.02 396.91 386.3 398.68 378.64 405.76 380.14 416.08 371.04 410.99 361.68 415.6 363.71 405.37 356.44 397.89 366.79 396.67"/><polygon class="j" points="406.86 389.72 420.72 399.8 415.42 416.09 398.29 416.09 392.99 399.8 406.86 389.72"/><polygon class="j" points="444.78 389.43 459.71 415.29 429.85 415.29 444.78 389.43"/><polygon class="j" points="475.79 395.67 480.65 386.44 485.02 395.91 495.3 397.68 487.64 404.76 489.14 415.08 480.04 409.99 470.68 414.6 472.71 404.37 465.44 396.89 475.79 395.67"/><polygon class="j" points="515.86 388.72 529.72 398.8 524.42 415.09 507.29 415.09 501.99 398.8 515.86 388.72"/><polygon class="j" points="548.78 390.43 563.71 416.29 533.85 416.29 548.78 390.43"/><rect class="j" x="250.69" y="54.98" width="81.09" height="21.21" rx="4" ry="4"/><rect class="j" x="318.42" y="86.89" width="81.09" height="21.21" rx="4" ry="4" transform="translate(444.01 -264.38) rotate(90)"/><rect class="j" x="362.57" y="110.12" width="181.39" height="21.21" rx="4" ry="4"/><rect class="j" x="317.67" y="171.64" width="82.59" height="21.21" rx="4" ry="4" transform="translate(528.76 -179.63) rotate(90)"/><rect class="j" x="342.82" y="169.97" width="85.94" height="21.21" rx="4" ry="4" transform="translate(553.9 -208.12) rotate(90)"/><rect class="j" x="335.57" y="223.12" width="181.39" height="21.21" rx="4" ry="4"/><rect class="j" x="388.63" y="170.62" width="107.27" height="21.21" rx="4" ry="4"/><rect class="j" x="392.99" y="248.43" width="96.21" height="21.21" rx="4" ry="4"/><rect class="j" x="474" y="283.33" width="85.94" height="21.21" rx="4" ry="4" transform="translate(798.45 -225.94) rotate(90)"/><rect class="j" x="235.14" y="113.98" width="96.64" height="21.21" rx="4" ry="4"/><rect class="j" x="208.63" y="198.93" width="122.68" height="21.21" rx="4" ry="4"/><rect class="j" x="235.14" y="138.64" width="96.64" height="21.21" rx="4" ry="4"/></svg>