<svg xmlns="http://www.w3.org/2000/svg" viewBox="0 0 488.44 307"><defs><style>.a,.b,.d{fill:none;}.a{stroke:#1a1a1a;stroke-width:3px;}.a,.b,.c,.d{stroke-miterlimit:10;}.b{stroke:#333;}.b,.c,.d{stroke-width:2px;stroke-dasharray:13;}.c{fill:#f2f2f2;}.c,.d{stroke:#4d4d4d;}.e{font-size:85px;}.e,.f,.g,.h,.i{font-family:Arial;}.f{font-size:60px;}.g,.i{font-size:14px;}.h{font-size:22px;}.i{font-style:italic;}</style></defs><title>grid-shorthand</title><rect class="a" x="88.94" y="54.5" width="325" height="198.9"/><line class="b" x1="413.94" x2="413.94" y2="307"/><line class="c" x1="196.94" x2="196.94" y2="307"/><line class="d" x1="304.94" x2="305.03" y2="307"/><line class="d" x1="88.61" x2="88.61" y2="307"/><line class="d" x1="35.12" y1="54.04" x2="469.12" y2="54.04"/><line class="d" x1="35.12" y1="155.04" x2="469.12" y2="155.04"/><line class="d" x1="35.12" y1="253.04" x2="469.12" y2="253.04"/><text class="e" transform="translate(165.87 48.24) rotate(-90) scale(0.9 1)">}</text><text class="e" transform="translate(273.87 48.24) rotate(-90) scale(0.9 1)">}</text><text class="e" transform="translate(381.87 48.24) rotate(-90) scale(0.9 1)">}</text><text class="f" transform="translate(126.6 126.02) scale(0.9 1)">a</text><text class="f" transform="translate(235.7 127.11) scale(0.9 1)">a</text><text class="f" transform="translate(341.7 127.11) scale(0.9 1)">a</text><text class="f" transform="translate(127.14 223.46) scale(0.9 1)">b</text><text class="f" transform="translate(236.14 222.46) scale(0.9 1)">b</text><text class="f" transform="translate(342.14 222.46) scale(0.9 1)">b</text><text class="g" transform="translate(126.22 67.42) scale(0.9 1)">a-start</text><text class="g" transform="translate(100.85 123.58) rotate(-90) scale(0.9 1)">a-start</text><text class="g" transform="translate(125.22 168.42) scale(0.9 1)">b-start</text><text class="g" transform="translate(100.85 219.58) rotate(-90) scale(0.9 1)">b-start</text><text x="-7.71" y="-5.19"/><text class="g" transform="translate(410.85 122.58) rotate(-90) scale(0.9 1)">a-end</text><text class="g" transform="translate(410.85 218.58) rotate(-90) scale(0.9 1)">b-end</text><text class="g" transform="translate(127.22 151.42) scale(0.9 1)">a-end</text><text class="g" transform="translate(127.22 250.42) scale(0.9 1)">b-end</text><text class="h" transform="translate(124.59 18.88) scale(0.9 1)">auto</text><text class="h" transform="translate(340.59 18.88) scale(0.9 1)">auto</text><text class="h" transform="translate(240.33 19.44) scale(0.9 1)">1fr</text><text class="e" transform="translate(420.93 126.38) scale(0.9 1)">}</text><text class="e" transform="translate(420.93 226.38) scale(0.9 1)">}</text><text class="h" transform="translate(449.82 110.02) scale(0.9 1)">auto</text><text class="h" transform="translate(448 211.57) scale(0.9 1)">1fr</text><text class="i" transform="translate(21 66.04) scale(0.9 1)">header(top)</text><text class="i" transform="translate(0 153.04) scale(0.9 1)">header(bottom)</text><text class="i" transform="translate(32 167.04) scale(0.9 1)">main(top)</text><text class="i" transform="translate(12 251.04) scale(0.9 1)">main(bottom)</text></svg>